<svg width="12" height="8" viewBox="0 0 12 8" fill="none" xmlns="http://www.w3.org/2000/svg">
<path d="M1.45962 1.04038C1.20578 0.78654 0.794221 0.78654 0.540381 1.04038C0.28654 1.29422 0.28654 1.70578 0.540381 1.95962L1.45962 1.04038ZM6 6.5L5.54038 6.95962L6 7.41924L6.45962 6.95962L6 6.5ZM11.4596 1.95962C11.7135 1.70578 11.7135 1.29422 11.4596 1.04038C11.2058 0.78654 10.7942 0.78654 10.5404 1.04038L11.4596 1.95962ZM0.540381 1.95962L5.54038 6.95962L6.45962 6.04038L1.45962 1.04038L0.540381 1.95962ZM6.45962 6.95962L11.4596 1.95962L10.5404 1.04038L5.54038 6.04038L6.45962 6.95962Z" fill="white"/>
</svg>
