<svg id="Layer_1" data-name="Layer 1" xmlns="http://www.w3.org/2000/svg" viewBox="0 0 374.57 94.93"><defs><style>.cls-1{fill:#27c5dc;}.cls-2{fill:#cdcdcd;}</style></defs><title>Artboard 1</title><path class="cls-1" d="M118.82,16.63H99.57a.88.88,0,0,0-.88.87V31.31a.88.88,0,0,0,.88.87h8.75V33.9h-3.5a.87.87,0,1,0,0,1.73h8.75a.87.87,0,1,0,0-1.73h-3.5V32.18h8.75a.87.87,0,0,0,.87-.87V17.5A.87.87,0,0,0,118.82,16.63Zm-.88,13.82h-17.5V18.36h17.5Zm-11.11-3.71a.86.86,0,0,0,1.23,0,.84.84,0,0,0,0-1.22l-1.13-1.12,1.13-1.11a.84.84,0,0,0,0-1.22.87.87,0,0,0-1.23,0l-1.75,1.72a.85.85,0,0,0,0,1.23Zm3.5,0a.86.86,0,0,0,1.23,0L113.31,25a.85.85,0,0,0,0-1.23l-1.75-1.72a.87.87,0,0,0-1.23,0,.84.84,0,0,0,0,1.22l1.13,1.11-1.13,1.12A.84.84,0,0,0,110.33,26.74Z"/><path class="cls-1" d="M227.38,37.73a3.23,3.23,0,0,1-.86-6.33V29.68a3.81,3.81,0,0,1-1.25-.52l-3,3.07a3.26,3.26,0,0,1-.53,3.84,3.16,3.16,0,0,1-4.5,0,3.27,3.27,0,0,1,0-4.57A3.15,3.15,0,0,1,221,31l3-3a4.13,4.13,0,0,1,0-4.29l-1.93-2a2.23,2.23,0,0,1-.92.19,2.36,2.36,0,1,1,2.33-2.35,2.38,2.38,0,0,1-.18.91l1.94,2a3.87,3.87,0,0,1,4.23,0l3-3.06a3.27,3.27,0,0,1,.54-3.86,3.09,3.09,0,0,1,2.24-.94,3.14,3.14,0,0,1,2.26.94,3.27,3.27,0,0,1,0,4.57,3.13,3.13,0,0,1-2.25.94h0a3.16,3.16,0,0,1-1.56-.41l-3,3.06a4.09,4.09,0,0,1,0,4.29l2,2A2.35,2.35,0,1,1,231.26,32a2.23,2.23,0,0,1,.19-.92l-1.94-2a3.86,3.86,0,0,1-1.26.52V31.4a3.23,3.23,0,0,1-.87,6.33Zm0-4.69a1.46,1.46,0,1,0,1.45,1.46A1.44,1.44,0,0,0,227.38,33Zm-7.92-.72a1.5,1.5,0,0,0-1,.43,1.47,1.47,0,0,0,0,2.07,1.45,1.45,0,0,0,2.06,0,1.47,1.47,0,0,0,0-2.07A1.44,1.44,0,0,0,219.46,32.32Zm14.11-.86a.58.58,0,1,0,.58.58A.57.57,0,0,0,233.57,31.46Zm-6.19-7.93a2.21,2.21,0,0,0-1.57.65,2.23,2.23,0,0,0,0,3.17,2.21,2.21,0,0,0,3.15,0,2.24,2.24,0,0,0-1.58-3.82Zm-6.2-4.61a.59.59,0,0,0,0,1.17.58.58,0,0,0,.59-.58A.58.58,0,0,0,221.18,18.92Zm14.12-2.63a1.47,1.47,0,0,0,0,2.93,1.42,1.42,0,0,0,1-.44,1.47,1.47,0,0,0-1-2.49Z"/><path class="cls-1" d="M39,17.5c-3.78-3.86-8.48-.78-10.78.73a28.52,28.52,0,0,0-5.12,4.88,7.16,7.16,0,0,0-1.7,5.48l.55,5c-.66.85-1.29,1.68-1.85,2.47a1,1,0,0,0,.21,1.38.93.93,0,0,0,.57.19,1,1,0,0,0,.78-.4c.52-.73,1.1-1.5,1.71-2.29l4.77.55a6.69,6.69,0,0,0,5.36-1.73,33.3,33.3,0,0,0,4.8-5.25C40.48,25.29,42.53,21.13,39,17.5Zm-2.16,9.93a31.15,31.15,0,0,1-2.33,2.8l-3.26-.56a.83.83,0,0,0-1,.7.85.85,0,0,0,.69,1l2,.35c-.23.22-.47.45-.71.66a5.07,5.07,0,0,1-4,1.29l-3.63-.42c2.82-3.44,6.1-6.9,8.63-8.59a1,1,0,0,0,.28-1.37A1,1,0,0,0,32.28,23c-2.59,1.74-5.88,5.16-8.74,8.62l-.36-3.23a5.36,5.36,0,0,1,1.27-4.07,28.81,28.81,0,0,1,2.86-3l.33,2.07a.85.85,0,0,0,.83.72h.13a.85.85,0,0,0,.69-1l-.48-3.05.41-.33c3.45-2.26,6.21-3.28,8.49-.94C39.79,20.94,39.53,23.44,36.83,27.43Z"/><path class="cls-1" d="M177.05,15.63A2.12,2.12,0,0,0,175,17.77V34.49a2.12,2.12,0,0,0,2.06,2.14h16.1a2.12,2.12,0,0,0,2.06-2.14V29.22l5.52-5.73a.92.92,0,0,0,0-1.27h0l-2.62-2.72a.85.85,0,0,0-.62-.26.87.87,0,0,0-.61.26l-1.67,1.75V17.77a2.12,2.12,0,0,0-2.06-2.14Zm0,1.8h16.1a.31.31,0,0,1,.32.34v5.28l-4.94,5.14a.89.89,0,0,0-.25.64v2.7a.88.88,0,0,0,.86.9h2.6a.83.83,0,0,0,.61-.26L193.47,31v3.48a.31.31,0,0,1-.32.34h-16.1a.31.31,0,0,1-.32-.34V17.77A.31.31,0,0,1,177.05,17.43Zm2.18,2.4a.9.9,0,0,0-.82,1,.88.88,0,0,0,.91.85h11.55a.9.9,0,0,0,0-1.8H179.23Zm18.27,1.58,1.39,1.44-.93,1-1.39-1.45Zm-18.27,2a.9.9,0,0,0-.82.95.88.88,0,0,0,.91.85h10.11a.9.9,0,0,0,0-1.8H179.23Zm16.11.22,1.39,1.44-5.35,5.54H190V29.21ZM179.23,27a.9.9,0,0,0-.82.95.88.88,0,0,0,.91.85h6.93a.9.9,0,0,0,0-1.8h-7.05Zm0,3.6a.9.9,0,0,0-.82.95.88.88,0,0,0,.91.85h6.93a.9.9,0,0,0,0-1.8h-7.05Z"/><path class="cls-1" d="M78.7,36.79a1.69,1.69,0,0,1-.75-.17l-4.45-2.1-3.67-3.65-5.26,5.26a1.58,1.58,0,0,1-1.17.5,1.64,1.64,0,0,1-1.17-.5L59.6,33.5a1.68,1.68,0,0,1,0-2.34l5.26-5.27-4.54-4.54a3.43,3.43,0,0,1-1-2.35,3.35,3.35,0,0,1,1-2.36,3.26,3.26,0,0,1,2.34-1,3.32,3.32,0,0,1,2.36,1l4.5,4.51,5.23-5.23a1.69,1.69,0,0,1,2.34,0l2.63,2.63a1.69,1.69,0,0,1,0,2.34l-5.23,5.23,3.63,3.63,2.12,4.5a1.71,1.71,0,0,1-.33,2A1.67,1.67,0,0,1,78.7,36.79ZM60.65,32.17a.14.14,0,0,0-.07.12.18.18,0,0,0,.07.16l2.62,2.63a.17.17,0,0,0,.13.07.21.21,0,0,0,.16-.07l5.33-5.26L66,26.91l-1.28,1.27.43.43a.7.7,0,0,1,0,1,.71.71,0,0,1-.52.19.72.72,0,0,1-.53-.19l-.43-.43-1,1,1.11,1.11a.71.71,0,0,1-.52,1.21.72.72,0,0,1-.53-.2l-1.11-1.11Zm16.56,2.51a1.18,1.18,0,0,1,.36-.78,1.22,1.22,0,0,1,.77-.37l-1.17-2.46-1.85.58-.59,1.86Zm-3.68-2.13.39-1.24L63.59,21l-.82.82Zm1.41-2.29,1.27-.4L65.45,19.1l-.81.81Zm-1.45-5.15,5.22-5.23a.13.13,0,0,0,.07-.11.23.23,0,0,0-.07-.17L76.08,17A.15.15,0,0,0,76,16.9a.24.24,0,0,0-.16.07l-.84.85L76.14,19a.71.71,0,0,1-.52,1.21.72.72,0,0,1-.53-.2L74,18.87l-1,1,.42.43a.71.71,0,0,1-.52,1.21.72.72,0,0,1-.53-.2l-.42-.43L70.58,22.2Zm-10.78-8a1.89,1.89,0,0,0-1.34.56A1.94,1.94,0,0,0,60.81,19a2,2,0,0,0,.56,1.34l.39.39,2.68-2.68-.39-.39A1.88,1.88,0,0,0,62.71,17.1Z"/><path class="cls-1" d="M267.56,37.19a2.89,2.89,0,0,1-2.76-2.11l0-.14-4,1.07a2.64,2.64,0,0,1-.74.1,2.86,2.86,0,0,1-1.6-5.21l.08-.06-.84-3.16a7.83,7.83,0,0,1,3.73-8.87l.11-.07-.05-.12a1.42,1.42,0,0,1-.07-.22,1.84,1.84,0,0,1,.18-1.4,1.86,1.86,0,0,1,1.13-.87,2,2,0,0,1,.48-.06,1.85,1.85,0,0,1,1.78,1.37,1.89,1.89,0,0,1,.05.23l0,.13h.13a7.88,7.88,0,0,1,7.67,5.82l.85,3.16h.1a2.85,2.85,0,0,1,.52,5.59l-4,1.08,0,.14a2.88,2.88,0,0,1-2,3.5,3,3,0,0,1-.73.09ZM266.4,34.5l.05.14a1.16,1.16,0,0,0,1.1.84,1.54,1.54,0,0,0,.3,0,1.16,1.16,0,0,0,.82-1.39l0-.15Zm-1.19-15.11a6.09,6.09,0,0,0-1.59.21,6.15,6.15,0,0,0-4.35,7.53l1.05,4a.85.85,0,0,1-.6,1,1.15,1.15,0,0,0,.3,2.26,1.54,1.54,0,0,0,.3,0l13.52-3.63a1.14,1.14,0,0,0,.7-.53,1.17,1.17,0,0,0,.11-.88,1.15,1.15,0,0,0-1.11-.85,1.54,1.54,0,0,0-.3,0,.78.78,0,0,1-.22,0,.86.86,0,0,1-.82-.63l-1.05-4A6.16,6.16,0,0,0,265.21,19.39Z"/><path class="cls-1" d="M345.19,36.44c-3.73,0-6.18-4.88-6.84-6.37a4.89,4.89,0,0,1-1.4-1.54c-.46-.84-.21-2,.65-3.23l0-2.82-4-1.91a.76.76,0,0,1,0-1.38l11.17-5.37a.74.74,0,0,1,.36-.09.73.73,0,0,1,.35.09l11.17,5.37.16.11a1.16,1.16,0,0,1,.16.17,1.26,1.26,0,0,1,.08.18,1,1,0,0,1,0,.23V23.4l.07,0a1.52,1.52,0,0,1,.7,1.27,1.57,1.57,0,0,1-3.13,0,1.52,1.52,0,0,1,.7-1.27l.07,0V21.13l-2.81,1.35v2.74c.89,1.27,1.13,2.47.68,3.31A4.37,4.37,0,0,1,352.08,30C351.36,31.56,348.91,36.44,345.19,36.44Zm0-11.84c-2.28,0-4.71.08-5.48.72-1.06.88-1.56,2.12-1.35,2.49a2.77,2.77,0,0,0,1,1,.8.8,0,0,1,.37.4c.65,1.58,2.9,5.68,5.48,5.68s4.82-4.1,5.47-5.68a.85.85,0,0,1,.36-.39,2.7,2.7,0,0,0,1-1c.22-.42-.37-1.67-1.35-2.49C349.89,24.68,347.46,24.6,345.19,24.6Zm0-1.54a16.64,16.64,0,0,1,5.76.66l.21.09V22c0-1-3.21-1.85-6-1.85s-6,.81-6,1.85v1.86l.21-.09A16.6,16.6,0,0,1,345.19,23.06Zm0-4.5c2.09,0,6,.47,7.18,2.24l.08.1,2.12-1-9.38-4.51-9.38,4.51,2.12,1,.07-.1C339.22,19,343.09,18.56,345.19,18.56Z"/><path class="cls-1" d="M151.88,27.49h-6.83a.86.86,0,0,0,.08,1.71h6.75a.86.86,0,0,0,0-1.71Z"/><path class="cls-1" d="M151.88,30.92h-6.83a.86.86,0,0,0,.08,1.71h6.75a.85.85,0,0,0,.83-1.05A.84.84,0,0,0,151.88,30.92Z"/><path class="cls-1" d="M155,24.06h-9.93a.85.85,0,0,0-.8.9.83.83,0,0,0,.88.81H155a.86.86,0,1,0,0-1.71Z"/><path class="cls-1" d="M142.92,36.63h15.67a2,2,0,0,0,2-2V18.67a2,2,0,0,0-2-2H142.92a2,2,0,0,0-2,2v5.41H138.6a2.13,2.13,0,0,0-2,2.23v6.91a3.23,3.23,0,0,0,3,3.41Zm-3.32-1.71a1.55,1.55,0,0,1-1.32-1.7V26.31c0-.29.17-.51.32-.51h2.32v7.42A1.55,1.55,0,0,1,139.6,34.92Zm19.31-11.23V34.6a.33.33,0,0,1-.32.32H142.18c.44,0,.43-1.7.43-1.7V18.67a.31.31,0,0,1,.31-.32h15.67a.32.32,0,0,1,.32.32Z"/><path class="cls-1" d="M156.38,20.63H145.05a.86.86,0,0,0,.08,1.72h11.25a.86.86,0,0,0,0-1.72Z"/><path class="cls-1" d="M299,37.49a.88.88,0,0,1-.88-.86V23.91l-.18,0a5.25,5.25,0,0,1-4.19-4.94,5,5,0,0,1,1.46-3.66A5.27,5.27,0,0,1,299,13.69h14.15a5.36,5.36,0,0,1,5.19,3.73,5,5,0,0,1-.5,4,5.29,5.29,0,0,1-3.36,2.46l-.31.07v5.44a.8.8,0,0,1-.44.71l-14.32,7.33A1,1,0,0,1,299,37.49Zm4.18-18.28a.87.87,0,0,1,.84,1.11,5.26,5.26,0,0,1-3.84,3.52l-.3.07v11.3l12.54-6.42V23.91l-.31-.07a5.24,5.24,0,0,1-3.86-3.59.82.82,0,0,1,.13-.71.8.8,0,0,1,.66-.33h.11a.83.83,0,0,1,.8.6,3.51,3.51,0,0,0,6.84-.85,3.4,3.4,0,0,0-.95-2.48,3.57,3.57,0,0,0-2.54-1.08h-14.2a3.55,3.55,0,0,0-3.58,3.1,3.39,3.39,0,0,0,.87,2.61,3.53,3.53,0,0,0,5.95-1.27A.89.89,0,0,1,303.21,19.21Z"/><path class="cls-2" d="M118.82,58.06H99.57a.88.88,0,0,0-.88.87V72.74a.88.88,0,0,0,.88.87h8.75v1.73h-3.5a.86.86,0,1,0,0,1.72h8.75a.86.86,0,1,0,0-1.72h-3.5V73.61h8.75a.87.87,0,0,0,.87-.87V58.93A.87.87,0,0,0,118.82,58.06Zm-.88,13.82h-17.5V59.79h17.5Zm-11.11-3.71a.86.86,0,0,0,1.23,0,.84.84,0,0,0,0-1.22l-1.13-1.11,1.13-1.12a.84.84,0,0,0,0-1.22.87.87,0,0,0-1.23,0l-1.75,1.73a.84.84,0,0,0,0,1.22Zm3.5,0a.86.86,0,0,0,1.23,0l1.75-1.72a.84.84,0,0,0,0-1.22l-1.75-1.73a.87.87,0,0,0-1.23,0,.84.84,0,0,0,0,1.22l1.13,1.12L110.33,67A.84.84,0,0,0,110.33,68.17Z"/><path class="cls-2" d="M227.38,79.16a3.23,3.23,0,0,1-.86-6.33V71.11a3.61,3.61,0,0,1-1.25-.52l-3,3.07a3.25,3.25,0,0,1-.53,3.84,3.16,3.16,0,0,1-4.5,0,3.27,3.27,0,0,1,0-4.57,3.15,3.15,0,0,1,3.8-.53l3-3.05a4.13,4.13,0,0,1,0-4.29l-1.93-2a2.23,2.23,0,0,1-.92.19,2.36,2.36,0,1,1,2.33-2.35,2.38,2.38,0,0,1-.18.91l1.94,2a3.87,3.87,0,0,1,4.23,0l3-3.06a3.27,3.27,0,0,1,.54-3.86A3.13,3.13,0,0,1,235.3,56a3.18,3.18,0,0,1,2.26.94,3.28,3.28,0,0,1,0,4.58,3.16,3.16,0,0,1-2.25.93h0a3.16,3.16,0,0,1-1.56-.41l-3,3.06a4.09,4.09,0,0,1,0,4.29l2,2a2.17,2.17,0,0,1,.89-.2,2.35,2.35,0,1,1-2.31,2.35,2.26,2.26,0,0,1,.19-.92l-1.94-2a3.86,3.86,0,0,1-1.26.52v1.72a3.23,3.23,0,0,1-.87,6.33Zm0-4.69a1.47,1.47,0,1,0,1.45,1.46A1.44,1.44,0,0,0,227.38,74.47Zm-7.92-.72a1.5,1.5,0,0,0-1,.43,1.47,1.47,0,0,0,0,2.07,1.45,1.45,0,0,0,2.06,0,1.47,1.47,0,0,0,0-2.07A1.44,1.44,0,0,0,219.46,73.75Zm14.11-.86a.58.58,0,1,0,.58.58A.57.57,0,0,0,233.57,72.89ZM227.38,65a2.18,2.18,0,0,0-1.57.66,2.22,2.22,0,0,0,0,3.16,2.19,2.19,0,0,0,3.15,0,2.22,2.22,0,0,0,0-3.16A2.18,2.18,0,0,0,227.38,65Zm-6.2-4.61a.59.59,0,0,0,0,1.18.59.59,0,1,0,0-1.18Zm14.12-2.63a1.47,1.47,0,0,0-1,2.5,1.44,1.44,0,0,0,2.05,0,1.47,1.47,0,0,0-1-2.5Z"/><path class="cls-2" d="M39,58.93c-3.78-3.86-8.48-.78-10.78.73a28.88,28.88,0,0,0-5.12,4.88A7.16,7.16,0,0,0,21.39,70l.55,5c-.66.85-1.29,1.69-1.85,2.47a1,1,0,0,0,.21,1.38.93.93,0,0,0,.57.19,1,1,0,0,0,.78-.4c.52-.73,1.1-1.5,1.71-2.29l4.77.55a6.69,6.69,0,0,0,5.36-1.73,33.3,33.3,0,0,0,4.8-5.25C40.48,66.72,42.53,62.56,39,58.93Zm-2.16,9.93a31.15,31.15,0,0,1-2.33,2.8l-3.26-.56a.83.83,0,0,0-1,.71.85.85,0,0,0,.69,1l2,.35c-.23.22-.47.45-.71.66a5,5,0,0,1-4,1.29l-3.63-.42c2.82-3.44,6.1-6.9,8.63-8.59a1,1,0,0,0,.28-1.37,1,1,0,0,0-1.34-.28c-2.59,1.73-5.88,5.16-8.74,8.61l-.36-3.22a5.38,5.38,0,0,1,1.27-4.08,28.81,28.81,0,0,1,2.86-3l.33,2.07a.85.85,0,0,0,.83.72h.13a.85.85,0,0,0,.69-1l-.48-3.05.41-.33c3.45-2.25,6.21-3.28,8.49-.94C39.79,62.37,39.53,64.87,36.83,68.86Z"/><path class="cls-2" d="M177.05,57.06A2.12,2.12,0,0,0,175,59.2V75.93a2.12,2.12,0,0,0,2.06,2.13h16.1a2.12,2.12,0,0,0,2.06-2.13V70.65l5.52-5.73a.92.92,0,0,0,0-1.27h0l-2.62-2.71a.83.83,0,0,0-.62-.27.88.88,0,0,0-.61.27l-1.67,1.74V59.2a2.12,2.12,0,0,0-2.06-2.14Zm0,1.8h16.1a.32.32,0,0,1,.32.34v5.28l-4.94,5.15a.85.85,0,0,0-.25.63V73a.88.88,0,0,0,.86.9h2.6a.83.83,0,0,0,.61-.26l1.12-1.16v3.49a.31.31,0,0,1-.32.33h-16.1a.3.3,0,0,1-.32-.33V59.2A.31.31,0,0,1,177.05,58.86Zm2.18,2.4a.9.9,0,0,0-.82,1,.88.88,0,0,0,.91.85h11.55a.87.87,0,0,0,.88-.88.88.88,0,0,0-.85-.92H179.23Zm18.27,1.58,1.39,1.44-.93,1-1.39-1.45Zm-18.27,2a.9.9,0,0,0-.82,1,.88.88,0,0,0,.91.85h10.11a.88.88,0,0,0,.88-.88.89.89,0,0,0-.86-.92H179.23Zm16.11.22,1.39,1.44-5.35,5.54H190V70.64Zm-16.11,3.38a.9.9,0,0,0-.82,1,.88.88,0,0,0,.91.85h6.93a.87.87,0,0,0,.88-.88.88.88,0,0,0-.85-.92h-7.05Zm0,3.6a.9.9,0,0,0-.82,1,.88.88,0,0,0,.91.85h6.93a.87.87,0,0,0,.88-.88.88.88,0,0,0-.85-.92h-7.05Z"/><path class="cls-2" d="M78.7,78.22a1.69,1.69,0,0,1-.75-.17L73.5,76,69.83,72.3l-5.26,5.26a1.59,1.59,0,0,1-1.17.51,1.65,1.65,0,0,1-1.17-.51L59.6,74.94a1.7,1.7,0,0,1,0-2.35l5.26-5.27-4.54-4.54a3.43,3.43,0,0,1-1-2.35,3.31,3.31,0,0,1,1-2.35,3.23,3.23,0,0,1,2.34-1,3.29,3.29,0,0,1,2.36,1l4.5,4.5,5.23-5.23a1.69,1.69,0,0,1,2.34,0L79.76,60a1.71,1.71,0,0,1,0,2.35l-5.23,5.22,3.63,3.63,2.12,4.5a1.71,1.71,0,0,1-.33,2A1.67,1.67,0,0,1,78.7,78.22ZM60.65,73.6a.15.15,0,0,0-.07.12.17.17,0,0,0,.07.16l2.62,2.63a.17.17,0,0,0,.13.07.21.21,0,0,0,.16-.07l5.33-5.26L66,68.34l-1.28,1.27.43.43a.7.7,0,0,1,0,1,.72.72,0,0,1-.52.2.72.72,0,0,1-.53-.2l-.43-.43-1,1,1.11,1.11A.71.71,0,0,1,63.21,74a.72.72,0,0,1-.53-.2l-1.11-1.11Zm16.56,2.51A1.27,1.27,0,0,1,78.34,75L77.17,72.5l-1.85.58-.59,1.86ZM73.53,74l.39-1.24L63.59,62.39l-.82.82Zm1.41-2.29,1.27-.4L65.45,60.53l-.81.81Zm-1.45-5.15,5.22-5.23a.13.13,0,0,0,.07-.11.23.23,0,0,0-.07-.17L76.08,58.4a.15.15,0,0,0-.12-.07.24.24,0,0,0-.16.07l-.84.85,1.18,1.15a.71.71,0,0,1-.52,1.21.72.72,0,0,1-.53-.2L74,60.3l-1,1,.42.43A.71.71,0,0,1,72.84,63a.72.72,0,0,1-.53-.2l-.42-.43-1.31,1.28Zm-10.78-8a1.89,1.89,0,0,0-1.34.56,1.88,1.88,0,0,0,0,2.68l.39.39,2.68-2.68-.39-.39A1.88,1.88,0,0,0,62.71,58.53Z"/><path class="cls-2" d="M267.56,78.62a2.89,2.89,0,0,1-2.76-2.11l0-.14-4,1.07a2.64,2.64,0,0,1-.74.1,2.85,2.85,0,0,1-1.6-5.2l.08-.06-.84-3.17a7.84,7.84,0,0,1,3.73-8.87l.11-.07-.05-.12a1.42,1.42,0,0,1-.07-.22,1.85,1.85,0,0,1,.18-1.4,1.81,1.81,0,0,1,1.13-.86,1.59,1.59,0,0,1,.48-.07,1.85,1.85,0,0,1,1.78,1.37c0,.08,0,.16.05.23l0,.13h.13a7.88,7.88,0,0,1,7.67,5.82l.85,3.16h.1a2.85,2.85,0,0,1,.52,5.6l-4,1.07,0,.14a2.88,2.88,0,0,1-2,3.5,3,3,0,0,1-.73.09Zm-1.16-2.69.05.14a1.15,1.15,0,0,0,1.1.84,1.54,1.54,0,0,0,.3,0,1.16,1.16,0,0,0,.82-1.39l0-.15Zm-1.19-15.11a6.09,6.09,0,0,0-1.59.21,6.15,6.15,0,0,0-4.35,7.53l1.05,4a.85.85,0,0,1-.08.64.87.87,0,0,1-.52.4,1.15,1.15,0,0,0,.3,2.26,1.54,1.54,0,0,0,.3,0l13.52-3.62a1.15,1.15,0,0,0,.81-1.41,1.14,1.14,0,0,0-1.11-.86,1.54,1.54,0,0,0-.3,0,.78.78,0,0,1-.22,0,.86.86,0,0,1-.82-.63l-1.05-4A6.16,6.16,0,0,0,265.21,60.82Z"/><path class="cls-2" d="M345.19,77.87c-3.73,0-6.18-4.88-6.84-6.37A4.89,4.89,0,0,1,337,70c-.46-.84-.21-2,.65-3.22l0-2.83-4-1.9a.77.77,0,0,1,0-1.39l11.17-5.37a.73.73,0,0,1,.36-.08.72.72,0,0,1,.35.08l11.17,5.37.16.11a1.16,1.16,0,0,1,.16.17l.08.18a1,1,0,0,1,0,.24v3.51l.07,0a1.52,1.52,0,0,1,.7,1.27,1.57,1.57,0,0,1-3.13,0,1.52,1.52,0,0,1,.7-1.27l.07,0V62.56l-2.81,1.35v2.74c.89,1.27,1.13,2.47.68,3.31a4.37,4.37,0,0,1-1.35,1.47C351.36,73,348.91,77.87,345.19,77.87Zm0-11.84c-2.28,0-4.71.09-5.48.73-1.06.88-1.56,2.11-1.35,2.48a3,3,0,0,0,1,1,.74.74,0,0,1,.37.39c.65,1.58,2.9,5.68,5.48,5.68s4.82-4.1,5.47-5.68a.85.85,0,0,1,.36-.39,2.7,2.7,0,0,0,1-1c.22-.42-.37-1.67-1.35-2.48C349.89,66.12,347.46,66,345.19,66Zm0-1.54a16.64,16.64,0,0,1,5.76.66l.21.09V63.38c0-1-3.21-1.85-6-1.85s-6,.81-6,1.85v1.86l.21-.09A16.6,16.6,0,0,1,345.19,64.49Zm0-4.5c2.09,0,6,.47,7.18,2.24l.08.11,2.12-1-9.38-4.52-9.38,4.52,2.12,1,.07-.11C339.22,60.46,343.09,60,345.19,60Z"/><path class="cls-2" d="M151.88,68.92h-6.83a.84.84,0,0,0-.8.9.83.83,0,0,0,.88.81h6.75a.86.86,0,0,0,0-1.71Z"/><path class="cls-2" d="M151.88,72.35h-6.83a.86.86,0,0,0,.08,1.71h6.75a.86.86,0,0,0,0-1.71Z"/><path class="cls-2" d="M155,65.49h-9.93a.86.86,0,0,0,.08,1.72H155a.86.86,0,0,0,0-1.72Z"/><path class="cls-2" d="M142.92,78.06h15.67a2,2,0,0,0,2-2V60.1a2,2,0,0,0-2-2H142.92a2,2,0,0,0-2,2v5.41H138.6a2.13,2.13,0,0,0-2,2.23v6.91a3.23,3.23,0,0,0,3,3.41Zm-3.32-1.71a1.55,1.55,0,0,1-1.32-1.7V67.74c0-.29.17-.51.32-.51h2.32v7.42A1.55,1.55,0,0,1,139.6,76.35Zm19.31-11.22V76a.33.33,0,0,1-.32.32H142.18c.44,0,.43-1.7.43-1.7V60.1a.31.31,0,0,1,.31-.32h15.67a.32.32,0,0,1,.32.32Z"/><path class="cls-2" d="M156.38,62.06H145.05a.86.86,0,0,0,.08,1.72h11.25a.86.86,0,0,0,0-1.72Z"/><path class="cls-2" d="M299,78.92a.88.88,0,0,1-.88-.86V65.34l-.18,0a5.25,5.25,0,0,1-4.19-4.94,5,5,0,0,1,1.46-3.66A5.27,5.27,0,0,1,299,55.12h14.15a5.36,5.36,0,0,1,5.19,3.73,5,5,0,0,1-.5,4,5.29,5.29,0,0,1-3.36,2.46l-.31.07v5.44a.8.8,0,0,1-.44.71l-14.32,7.33A.86.86,0,0,1,299,78.92Zm4.18-18.28a.88.88,0,0,1,.71.36.86.86,0,0,1,.13.76,5.27,5.27,0,0,1-3.84,3.51l-.3.07v11.3l12.54-6.41V65.34l-.31-.07a5.24,5.24,0,0,1-3.86-3.59.82.82,0,0,1,.13-.71.8.8,0,0,1,.66-.33h.11a.85.85,0,0,1,.8.6,3.5,3.5,0,0,0,6.84-.84,3.4,3.4,0,0,0-.95-2.49,3.57,3.57,0,0,0-2.54-1.08h-14.2a3.55,3.55,0,0,0-3.58,3.1,3.39,3.39,0,0,0,.87,2.61A3.52,3.52,0,0,0,299,63.69a3.48,3.48,0,0,0,3.34-2.42A.9.9,0,0,1,303.21,60.64Z"/></svg>