<svg width="24" height="25" viewBox="0 0 24 25" fill="none" xmlns="http://www.w3.org/2000/svg">
    <path d="M20 11.3409H22C22 6.21092 18.127 2.34192 12.99 2.34192V4.34192C17.052 4.34192 20 7.28492 20 11.3409Z" fill="white"/>
    <path d="M13 8.34191C15.103 8.34191 16 9.23891 16 11.3419H18C18 8.11691 16.225 6.34191 13 6.34191V8.34191ZM16.422 13.7849C16.2299 13.6103 15.9774 13.5171 15.7178 13.5251C15.4583 13.5332 15.212 13.6417 15.031 13.8279L12.638 16.2889C12.062 16.1789 10.904 15.8179 9.71201 14.6289C8.52001 13.4359 8.15901 12.2749 8.05201 11.7029L10.511 9.30891C10.6974 9.12804 10.8061 8.88174 10.8142 8.62212C10.8222 8.36251 10.7289 8.10995 10.554 7.91791L6.85901 3.85491C6.68405 3.66227 6.44089 3.54542 6.18116 3.52917C5.92143 3.51293 5.66561 3.59857 5.46801 3.76791L3.29801 5.62891C3.12512 5.80243 3.02193 6.03336 3.00801 6.27791C2.99301 6.52791 2.70701 12.4499 7.29901 17.0439C11.305 21.0489 16.323 21.3419 17.705 21.3419C17.907 21.3419 18.031 21.3359 18.064 21.3339C18.3085 21.3202 18.5393 21.2166 18.712 21.0429L20.572 18.8719C20.7415 18.6744 20.8273 18.4187 20.8112 18.159C20.7952 17.8992 20.6785 17.656 20.486 17.4809L16.422 13.7849Z" fill="white"/>
</svg>
