<svg width="17" height="16" viewBox="0 0 17 16" fill="none" xmlns="http://www.w3.org/2000/svg">
<path d="M8.50002 9.33334C9.2364 9.33334 9.83335 8.73638 9.83335 8.00001C9.83335 7.26363 9.2364 6.66667 8.50002 6.66667C7.76364 6.66667 7.16669 7.26363 7.16669 8.00001C7.16669 8.73638 7.76364 9.33334 8.50002 9.33334Z" stroke="#FF4444" stroke-linecap="round" stroke-linejoin="round"/>
<path d="M11.3267 5.17333C11.6986 5.54483 11.9936 5.98598 12.1949 6.47157C12.3962 6.95716 12.4998 7.47767 12.4998 8.00333C12.4998 8.529 12.3962 9.0495 12.1949 9.5351C11.9936 10.0207 11.6986 10.4618 11.3267 10.8333M5.67335 10.8267C5.30145 10.4552 5.00641 10.014 4.80512 9.52843C4.60382 9.04284 4.50021 8.52233 4.50021 7.99667C4.50021 7.471 4.60382 6.9505 4.80512 6.46491C5.00641 5.97931 5.30145 5.53816 5.67335 5.16667M13.2134 3.28667C14.4632 4.53685 15.1653 6.23224 15.1653 8C15.1653 9.76776 14.4632 11.4631 13.2134 12.7133M3.78669 12.7133C2.53688 11.4631 1.83478 9.76776 1.83478 8C1.83478 6.23224 2.53688 4.53685 3.78669 3.28667" stroke="#FF4444" stroke-linecap="round" stroke-linejoin="round"/>
</svg>
